# xmcd
# 
# Track frame offsets:
#     150
#     17110
#     31047
#     50295
#     77322
#     96452
#     113412
#     129272
#     147007
#     172255
#     183420
#     199462
# 
# Disc length: 2967
# 
# Revision: 9
# Processed by: cddbd v1.5.2PL0 Copyright (c) Steve Scherf et al.
# Submitted via: fre:ac v1.0.17
# 
DISCID=960b950c
DTITLE=モーニング娘。 - 愛の第6感
DYEAR=2004
DGENRE=JPop
TTITLE0=涙が止まらない放課後
TTITLE1=すき焼き
TTITLE2=春の歌
TTITLE3=女子かしまし物語
TTITLE4=直感～時として恋は～
TTITLE5=独占欲
TTITLE6=レモン色とミルクティ
TTITLE7=浪漫～MY DEAR BOY～
TTITLE8=声
TTITLE9=HELP!!
TTITLE10=SHIP TO THE FUTURE
TTITLE11=女子かしまし物語2
EXTD=YEAR: 2004
EXTT0=
EXTT1=
EXTT2=
EXTT3=
EXTT4=
EXTT5=
EXTT6=
EXTT7=
EXTT8=
EXTT9=
EXTT10=
EXTT11=
PLAYORDER=
